<svg xmlns="http://www.w3.org/2000/svg" xmlns:xlink="http://www.w3.org/1999/xlink" width="128" zoomAndPan="magnify" viewBox="0 0 96 95.999999" height="128" preserveAspectRatio="xMidYMid meet" version="1.0"><defs><g/><clipPath id="d1402f2510"><path d="M 48 0 C 74.507812 0 96 21.492188 96 48 C 96 74.507812 74.507812 96 48 96 C 21.492188 96 0 74.507812 0 48 C 0 21.492188 21.492188 0 48 0 Z M 48 0 " clip-rule="nonzero"/></clipPath><clipPath id="5c57934dd4"><path d="M 11.964844 29.824219 L 27.488281 29.824219 L 27.488281 41.207031 L 11.964844 41.207031 Z M 11.964844 29.824219 " clip-rule="nonzero"/></clipPath><clipPath id="14ef338171"><path d="M 14.632812 51.871094 L 30.097656 51.871094 L 30.097656 65.382812 L 14.632812 65.382812 Z M 14.632812 51.871094 " clip-rule="nonzero"/></clipPath><clipPath id="857ef45bf5"><path d="M 22.355469 51.871094 L 30.074219 65.382812 L 14.632812 65.382812 Z M 22.355469 51.871094 " clip-rule="nonzero"/></clipPath><clipPath id="bbb632cfde"><path d="M 44.015625 75.960938 L 54.457031 75.960938 L 54.457031 86.398438 L 44.015625 86.398438 Z M 44.015625 75.960938 " clip-rule="nonzero"/></clipPath><clipPath id="02e04791cb"><path d="M 49.238281 75.960938 C 46.355469 75.960938 44.015625 78.296875 44.015625 81.179688 C 44.015625 84.0625 46.355469 86.398438 49.238281 86.398438 C 52.121094 86.398438 54.457031 84.0625 54.457031 81.179688 C 54.457031 78.296875 52.121094 75.960938 49.238281 75.960938 Z M 49.238281 75.960938 " clip-rule="nonzero"/></clipPath><clipPath id="403316453c"><path d="M 49.238281 38.601562 L 63.082031 38.601562 L 63.082031 52.179688 L 49.238281 52.179688 Z M 49.238281 38.601562 " clip-rule="nonzero"/></clipPath><clipPath id="55d1b2c272"><path d="M 68.222656 29.824219 L 86.398438 29.824219 L 86.398438 48 L 68.222656 48 Z M 68.222656 29.824219 " clip-rule="nonzero"/></clipPath><clipPath id="aa6b02d88b"><path d="M 77.3125 29.824219 C 72.292969 29.824219 68.222656 33.890625 68.222656 38.910156 C 68.222656 43.929688 72.292969 48 77.3125 48 C 82.332031 48 86.398438 43.929688 86.398438 38.910156 C 86.398438 33.890625 82.332031 29.824219 77.3125 29.824219 Z M 77.3125 29.824219 " clip-rule="nonzero"/></clipPath><clipPath id="3cd9291cfa"><path d="M 65.351562 65.382812 L 79.480469 65.382812 L 79.480469 77.726562 L 65.351562 77.726562 Z M 65.351562 65.382812 " clip-rule="nonzero"/></clipPath><clipPath id="37d8946396"><path d="M 72.40625 65.382812 L 79.460938 77.726562 L 65.351562 77.726562 Z M 72.40625 65.382812 " clip-rule="nonzero"/></clipPath><clipPath id="f95d9aef0e"><path d="M 27.050781 11.5625 L 41.808594 11.5625 L 41.808594 21.269531 L 27.050781 21.269531 Z M 27.050781 11.5625 " clip-rule="nonzero"/></clipPath><clipPath id="9a8ee90a2f"><path d="M 49.238281 9.277344 L 69.253906 9.277344 L 69.253906 26.765625 L 49.238281 26.765625 Z M 49.238281 9.277344 " clip-rule="nonzero"/></clipPath><clipPath id="75d61ccba7"><path d="M 59.230469 9.277344 L 69.222656 26.765625 L 49.238281 26.765625 Z M 59.230469 9.277344 " clip-rule="nonzero"/></clipPath><clipPath id="357f7cfd11"><path d="M 17.894531 71.554688 L 29.050781 71.554688 L 29.050781 77.726562 L 17.894531 77.726562 Z M 17.894531 71.554688 " clip-rule="nonzero"/></clipPath></defs><g clip-path="url(#d1402f2510)"><rect x="-9.6" width="115.2" fill="#e17100" y="-9.6" height="115.199999" fill-opacity="1"/><path stroke-linecap="butt" transform="matrix(0.75, 0, 0, 0.75, 0.0000005, 0.000002)" fill="none" stroke-linejoin="miter" d="M 63.999999 -0.00000266667 C 99.343748 -0.00000266667 127.999998 28.656247 127.999998 63.999997 C 127.999998 99.343746 99.343748 127.999996 63.999999 127.999996 C 28.656249 127.999996 -0.000000666667 99.343746 -0.000000666667 63.999997 C -0.000000666667 28.656247 28.656249 -0.00000266667 63.999999 -0.00000266667 Z M 63.999999 -0.00000266667 " stroke="#ffffff" stroke-width="10" stroke-opacity="1" stroke-miterlimit="4"/></g><g clip-path="url(#5c57934dd4)"><path fill="#ffffff" d="M 11.964844 29.824219 L 27.484375 29.824219 L 27.484375 41.207031 L 11.964844 41.207031 Z M 11.964844 29.824219 " fill-opacity="1" fill-rule="nonzero"/></g><g clip-path="url(#14ef338171)"><g clip-path="url(#857ef45bf5)"><path fill="#ffffff" d="M 14.632812 51.871094 L 30.097656 51.871094 L 30.097656 65.382812 L 14.632812 65.382812 Z M 14.632812 51.871094 " fill-opacity="1" fill-rule="nonzero"/></g></g><g clip-path="url(#bbb632cfde)"><g clip-path="url(#02e04791cb)"><path fill="#ffffff" d="M 44.015625 75.960938 L 54.457031 75.960938 L 54.457031 86.398438 L 44.015625 86.398438 Z M 44.015625 75.960938 " fill-opacity="1" fill-rule="nonzero"/></g></g><path stroke-linecap="butt" transform="matrix(0.522639, 0, 0, 0.522639, 27.48926, 7.235175)" fill="none" stroke-linejoin="miter" d="M 12.719015 117.999282 L 12.719015 36.56168 L 29.939301 36.56168 L 29.939301 103.813474 L 64.85074 103.813474 L 64.85074 117.999282 Z M 12.719015 117.999282 " stroke="#ffffff" stroke-width="8.398275" stroke-opacity="1" stroke-miterlimit="4"/><g fill="#000000" fill-opacity="1"><g transform="translate(30.437273, 68.906625)"><g><path d="M 3.703125 0 L 3.703125 -42.5625 L 12.703125 -42.5625 L 12.703125 -7.421875 L 30.9375 -7.421875 L 30.9375 0 Z M 3.703125 0 "/></g></g></g><g clip-path="url(#403316453c)"><path fill="#ffffff" d="M 49.238281 38.601562 L 63.078125 38.601562 L 63.078125 52.179688 L 49.238281 52.179688 Z M 49.238281 38.601562 " fill-opacity="1" fill-rule="nonzero"/></g><g clip-path="url(#55d1b2c272)"><g clip-path="url(#aa6b02d88b)"><path fill="#ffffff" d="M 68.222656 29.824219 L 86.398438 29.824219 L 86.398438 48 L 68.222656 48 Z M 68.222656 29.824219 " fill-opacity="1" fill-rule="nonzero"/></g></g><g clip-path="url(#3cd9291cfa)"><g clip-path="url(#37d8946396)"><path fill="#ffffff" d="M 65.351562 65.382812 L 79.480469 65.382812 L 79.480469 77.726562 L 65.351562 77.726562 Z M 65.351562 65.382812 " fill-opacity="1" fill-rule="nonzero"/></g></g><g clip-path="url(#f95d9aef0e)"><path fill="#ffffff" d="M 27.050781 11.5625 L 41.796875 11.5625 L 41.796875 21.269531 L 27.050781 21.269531 Z M 27.050781 11.5625 " fill-opacity="1" fill-rule="nonzero"/></g><g clip-path="url(#9a8ee90a2f)"><g clip-path="url(#75d61ccba7)"><path fill="#ffffff" d="M 49.238281 9.277344 L 69.253906 9.277344 L 69.253906 26.765625 L 49.238281 26.765625 Z M 49.238281 9.277344 " fill-opacity="1" fill-rule="nonzero"/></g></g><g clip-path="url(#357f7cfd11)"><path fill="#ffffff" d="M 17.894531 71.554688 L 29.054688 71.554688 L 29.054688 77.726562 L 17.894531 77.726562 Z M 17.894531 71.554688 " fill-opacity="1" fill-rule="nonzero"/></g></svg>